<svg width="13" height="16" viewBox="0 0 13 16" fill="none" xmlns="http://www.w3.org/2000/svg">
<path d="M12.5713 5.95914C12.5713 2.39488 10.0454 0 6.28567 0C2.5259 0 0 2.39474 0 5.95914C0 9.76115 3.21559 12.4387 5.14656 13.3594L4.0814 15.1345C3.97524 15.3111 3.97258 15.5311 4.07422 15.7101C4.17534 15.8892 4.36546 16 4.5714 16H7.99994C8.20588 16 8.39589 15.8892 8.49712 15.7101C8.59863 15.531 8.59597 15.3111 8.48994 15.1345L7.42478 13.3594C9.35572 12.439 12.5713 9.76115 12.5713 5.95914H12.5713ZM3.88262 4.38868C3.58129 4.78381 3.42838 5.31207 3.42838 5.95914C3.42838 6.37992 3.51009 6.80403 3.67138 7.21974C3.78552 7.51404 3.63963 7.84515 3.34547 7.95913C3.05064 8.07392 2.71993 7.9271 2.60609 7.63321C2.39311 7.08502 2.28548 6.52206 2.28548 5.95911C2.28548 5.05588 2.51707 4.29419 2.97398 3.69548C3.16504 3.4445 3.52364 3.39587 3.77476 3.58786C4.02574 3.77919 4.0741 4.13779 3.88264 4.38864L3.88262 4.38868Z" fill="#001E1B"/>
</svg>
