<svg width="48" height="47" viewBox="0 0 48 47" fill="none" xmlns="http://www.w3.org/2000/svg">
<path opacity="0.5" d="M47.857 28.1028C47.8573 27.2025 47.6007 26.3207 47.1176 25.5609L40.2606 14.7853C39.6846 13.8696 38.6777 13.3148 37.5956 13.3158H30.3173V12.9728C30.3135 12.1832 29.9968 11.4267 29.4372 10.8699C28.8772 10.3126 28.1195 10 27.3295 10H24.9443V10.7739C24.9491 14.0808 23.824 17.2903 21.7553 19.8702C19.6866 22.45 16.7985 24.2465 13.5695 24.9605C10.3405 25.6746 6.96417 25.2643 4 23.7971V38.5157C4 39.3052 4.31364 40.0627 4.87226 40.6213C5.43053 41.1799 6.18799 41.4936 6.97788 41.4936H9.83342C10.3158 42.8284 11.2008 43.9805 12.3658 44.7912C13.5308 45.6016 14.9187 46.0308 16.3379 46.0191C17.7531 46.0133 19.133 45.5774 20.2946 44.769C21.4566 43.9607 22.3449 42.8185 22.8424 41.4936H29.45C29.9325 42.8284 30.8174 43.9805 31.9824 44.7912C33.1474 45.6016 34.5353 46.0308 35.9545 46.0191C37.3714 46.0154 38.7534 45.5801 39.9171 44.7717C41.0808 43.9634 41.9708 42.8199 42.469 41.4936H44.8886C45.6768 41.4908 46.4315 41.1762 46.9881 40.6179C47.5443 40.0596 47.8566 39.3035 47.8566 38.5157L47.857 28.1028ZM16.3435 41.6799C15.6558 41.6772 14.997 41.4028 14.5105 40.9167C14.0243 40.4305 13.75 39.7718 13.7473 39.084C13.7589 38.399 14.036 37.7454 14.5204 37.2609C15.0046 36.7764 15.6585 36.4994 16.3435 36.4881C17.2708 36.4881 18.1276 36.9828 18.5916 37.7861C19.0553 38.5893 19.0553 39.5787 18.5916 40.382C18.1277 41.1852 17.2707 41.6799 16.3435 41.6799ZM35.9356 41.6799C35.243 41.6786 34.5792 41.4032 34.0893 40.9139C33.599 40.425 33.3226 39.7615 33.3199 39.0693C33.3301 38.3788 33.6089 37.7194 34.0971 37.2308C34.5854 36.7426 35.2448 36.4638 35.9356 36.4535C36.6313 36.4549 37.2982 36.733 37.7888 37.2264C38.2795 37.7197 38.5538 38.388 38.5511 39.0839C38.5398 39.7703 38.2631 40.4256 37.7793 40.9121C37.2951 41.399 36.6415 41.6795 35.9552 41.6945L35.9356 41.6799ZM41.6611 26.5398H32.4476C32.1312 26.5398 31.8746 26.2832 31.8746 25.9669V18.3748C31.8746 18.0585 32.1312 17.8019 32.4476 17.8019H36.8266C37.0244 17.8005 37.2089 17.9003 37.3162 18.0663L42.1506 25.6631C42.2613 25.8404 42.2668 26.0638 42.1649 26.2463C42.0628 26.4287 41.8702 26.5412 41.6611 26.5398Z" fill="#FC6092"/>
<path fill-rule="evenodd" clip-rule="evenodd" d="M10.5941 21.1886C13.4039 21.1886 16.0983 20.0728 18.085 18.0863C20.0718 16.0999 21.1883 13.4056 21.1886 10.5958C21.189 7.78636 20.0735 5.09166 18.0874 3.10464C16.1013 1.11754 13.407 0.000701127 10.5976 7.05003e-07C7.7881 -0.00102359 5.09306 1.11412 3.10569 3.10018C1.11823 5.08589 0.00104957 7.77988 0 10.5893C0.00239163 13.3988 1.11928 16.0928 3.10534 18.0799C5.09175 20.0666 7.78469 21.1849 10.5941 21.1886ZM8.93872 6.05909C8.93872 5.46768 9.25408 4.92135 9.76656 4.62546C10.2787 4.32993 10.9097 4.32993 11.4219 4.62546C11.9341 4.92133 12.2497 5.46765 12.2497 6.05909V9.90893L14.7233 12.3825C15.0359 12.6927 15.2122 13.1143 15.2129 13.5547C15.214 13.9948 15.0394 14.4174 14.7281 14.7287C14.4169 15.0399 13.9942 15.2145 13.5542 15.2135C13.1138 15.2128 12.6918 15.0365 12.382 14.7239L8.95344 11.2954L8.93872 6.05909Z" fill="#FC6092"/>
</svg>
