<svg width="42" height="51" viewBox="0 0 42 51" fill="none" xmlns="http://www.w3.org/2000/svg">
<path d="M34.6938 21.7851V4.37388C34.6938 2.50296 33.1717 0.980957 31.3008 0.980957H3.71323C1.84232 0.980957 0.320312 2.50296 0.320312 4.37388V40.5549C0.320312 42.4259 1.84232 43.9479 3.71323 43.9479H24.538V49.4164C24.538 50.6112 25.8319 51.3692 26.8756 50.773L31.569 48.091C36.7527 51.0532 36.4817 50.9788 37.0375 50.9788C37.9003 50.9788 38.5999 50.2783 38.5999 49.4164V38.7698C44.161 33.4272 41.9583 24.1399 34.6938 21.7851ZM3.71323 40.823C3.56539 40.823 3.44518 40.7028 3.44518 40.5549V4.37388C3.44518 4.22603 3.56539 4.10582 3.71323 4.10582H31.3009C31.4488 4.10582 31.569 4.22603 31.569 4.37388V21.2926C25.969 21.2926 21.4132 25.8484 21.4132 31.4484C21.4132 34.3221 22.6131 36.9205 24.538 38.7698V40.823H3.71323ZM35.4751 46.724L32.3441 44.9349C31.8637 44.6604 31.2742 44.6604 30.7937 44.9349L27.6628 46.724V40.8225C30.1542 41.8646 32.9802 41.8659 35.475 40.8225V46.724H35.4751ZM31.569 38.4793C27.6921 38.4793 24.538 35.3253 24.538 31.4484C24.538 27.5715 27.6921 24.4174 31.569 24.4174C35.4459 24.4174 38.5999 27.5715 38.5999 31.4484C38.5999 35.3253 35.4459 38.4793 31.569 38.4793Z" fill="url(#paint0_linear_1002_4153)"/>
<path d="M30.7876 35.4523C30.1773 35.4523 30.0996 35.3079 27.5788 33.6273C26.8607 33.1486 26.6667 32.1785 27.1454 31.4606C27.6241 30.7425 28.5942 30.5486 29.3121 31.0272L30.3558 31.723L32.614 28.3357C33.0926 27.6177 34.0629 27.4237 34.7807 27.9023C35.4988 28.381 35.6928 29.3511 35.2141 30.069L32.0892 34.7563C31.788 35.208 31.2925 35.4523 30.7876 35.4523Z" fill="url(#paint1_linear_1002_4153)"/>
<path d="M22.9759 11.918H9.69525C8.83239 11.918 8.13281 11.2184 8.13281 10.3555C8.13281 9.49267 8.83239 8.79309 9.69525 8.79309H22.9759C23.8389 8.79309 24.5384 9.49267 24.5384 10.3555C24.5384 11.2184 23.8388 11.918 22.9759 11.918Z" fill="url(#paint2_linear_1002_4153)"/>
<path d="M22.9759 18.1677H9.69525C8.83239 18.1677 8.13281 17.4681 8.13281 16.6053C8.13281 15.7424 8.83239 15.0428 9.69525 15.0428H22.9759C23.8389 15.0428 24.5384 15.7424 24.5384 16.6053C24.5384 17.4681 23.8388 18.1677 22.9759 18.1677Z" fill="url(#paint3_linear_1002_4153)"/>
<path d="M17.5074 24.4175H9.69525C8.83239 24.4175 8.13281 23.7179 8.13281 22.855C8.13281 21.9922 8.83239 21.2926 9.69525 21.2926H17.5074C18.3703 21.2926 19.0698 21.9922 19.0698 22.855C19.0698 23.7179 18.3703 24.4175 17.5074 24.4175Z" fill="url(#paint4_linear_1002_4153)"/>
<defs>
<linearGradient id="paint0_linear_1002_4153" x1="-28.6824" y1="-81.2343" x2="55.128" y2="-76.6884" gradientUnits="userSpaceOnUse">
<stop stop-color="#452B8C"/>
<stop offset="0.255208" stop-color="#00AFE9"/>
<stop offset="1" stop-color="#FF0090"/>
</linearGradient>
<linearGradient id="paint1_linear_1002_4153" x1="20.863" y1="14.7936" x2="38.2197" y2="16.0442" gradientUnits="userSpaceOnUse">
<stop stop-color="#452B8C"/>
<stop offset="0.255208" stop-color="#00AFE9"/>
<stop offset="1" stop-color="#FF0090"/>
</linearGradient>
<linearGradient id="paint2_linear_1002_4153" x1="-3.3588" y1="3.65485" x2="26.4247" y2="13.8968" gradientUnits="userSpaceOnUse">
<stop stop-color="#452B8C"/>
<stop offset="0.255208" stop-color="#00AFE9"/>
<stop offset="1" stop-color="#FF0090"/>
</linearGradient>
<linearGradient id="paint3_linear_1002_4153" x1="-3.3588" y1="9.90461" x2="26.4247" y2="20.1466" gradientUnits="userSpaceOnUse">
<stop stop-color="#452B8C"/>
<stop offset="0.255208" stop-color="#00AFE9"/>
<stop offset="1" stop-color="#FF0090"/>
</linearGradient>
<linearGradient id="paint4_linear_1002_4153" x1="0.471734" y1="16.1544" x2="21.5667" y2="20.9905" gradientUnits="userSpaceOnUse">
<stop stop-color="#452B8C"/>
<stop offset="0.255208" stop-color="#00AFE9"/>
<stop offset="1" stop-color="#FF0090"/>
</linearGradient>
</defs>
</svg>
