<svg width="51" height="45" viewBox="0 0 51 45" fill="none" xmlns="http://www.w3.org/2000/svg">
<path d="M36.9382 1.24179C36.6636 0.964844 36.289 0.809204 35.8987 0.809204C35.5085 0.809204 35.1343 0.965225 34.8592 1.24217L30.5318 5.60314C30.2453 5.89153 29.865 6.05061 29.4614 6.05061C29.1539 6.05061 21.7988 6.05061 20.5098 6.05061C20.1059 6.05061 19.7259 5.89153 19.4368 5.60085L15.1853 1.33754C14.9106 1.06174 14.5371 0.906861 14.148 0.906861C14.1477 0.906861 14.1469 0.906861 14.1465 0.906861C13.7567 0.907242 13.3832 1.06326 13.1085 1.33983L0.448683 14.0931C-0.119327 14.6654 -0.118182 15.5889 0.451353 16.16L4.08219 19.7977C4.76998 20.4908 5.14878 21.4128 5.14878 22.3943C5.14878 24.6169 4.88388 27.2111 5.19746 29.4115C5.32879 30.3331 5.74562 31.2209 6.44807 31.9284C7.75947 33.25 9.35604 34.8584 10.6679 36.1795C11.9793 37.5011 13.5762 39.1092 14.8877 40.4306C15.6448 41.1934 16.5974 41.6175 17.5699 41.72C18.6641 41.8354 19.812 42.3854 20.5873 43.1661C22.3264 44.9186 25.1466 44.919 26.8861 43.1661L27.5045 42.5436C28.0626 41.981 29.022 41.7752 29.7629 42.0564C31.3401 42.655 33.199 42.3286 34.4861 41.0318C35.7979 39.7108 37.3946 38.1022 38.706 36.7807C40.0176 35.4598 41.6142 33.8511 42.9258 32.53C43.2155 32.2381 43.4567 31.9156 43.6493 31.5726C45.1964 28.8178 44.8221 24.7035 44.8221 21.544C44.8221 21.1172 44.9934 20.6998 45.292 20.3989L49.5981 16.0592C50.165 15.4882 50.165 14.5666 49.5981 13.9955L36.9382 1.24179ZM8.52746 27.6773L10.6374 25.5518C11.2298 24.9548 12.185 24.9544 12.7778 25.5518C13.3767 26.1549 13.3767 27.136 12.7778 27.7387L10.6679 29.8647C10.0751 30.4617 9.12027 30.4617 8.52746 29.8647C7.92894 29.2616 7.92894 28.2804 8.52746 27.6773ZM12.7473 31.9284L16.9671 27.6773C17.5599 27.0803 18.5151 27.0799 19.1079 27.6773C19.7065 28.2804 19.7065 29.2616 19.1079 29.8647C17.6038 31.3799 17.5237 31.4603 14.8877 34.1158C14.2949 34.7124 13.3401 34.7128 12.7473 34.1154C12.1488 33.5127 12.1488 32.5315 12.7473 31.9284ZM16.9671 38.3665C16.3686 37.7638 16.3686 36.7826 16.9671 36.1795L19.077 34.054C19.6698 33.457 20.625 33.457 21.2178 34.054C21.3514 34.1885 21.4551 34.3419 21.5289 34.5056C21.989 35.5256 20.9453 36.4927 20.1619 37.2917C19.8867 37.5725 19.5416 37.9244 19.1079 38.3665C18.5151 38.9639 17.5603 38.9643 16.9671 38.3665ZM25.4255 40.4795L24.8071 41.102C24.2143 41.6994 23.2595 41.6994 22.6667 41.102C22.2686 40.7011 22.136 40.1335 22.2678 39.6208C22.3667 39.2359 22.9185 38.6859 23.1989 38.4043C23.524 38.0778 23.5984 37.9707 24.0493 37.8764C24.5318 37.7754 25.0512 37.9156 25.4255 38.2925C26.024 38.8956 26.0236 39.8767 25.4255 40.4795ZM40.8468 30.4659C40.254 31.0629 39.2988 31.0629 38.706 30.4659L35.9781 27.7177C35.4082 27.1436 34.4804 27.1402 33.9063 27.7101C33.3322 28.28 33.3288 29.2074 33.8987 29.7815L36.6269 32.5296C37.2255 33.1327 37.2255 34.1139 36.6269 34.7166C36.0341 35.314 35.0789 35.314 34.4861 34.7166L31.7582 31.9685C31.1879 31.3944 30.2606 31.3909 29.6865 31.9608C29.1124 32.5308 29.1089 33.4585 29.6788 34.0326L32.4067 36.7807C33.0056 37.3838 33.0056 38.365 32.4067 38.9677C31.8143 39.5651 30.8591 39.5651 30.2659 38.9677C28.1422 36.8457 27.6644 36.3274 27.4426 36.1307C27.3194 36.0215 27.1795 35.9291 27.049 35.8288C25.8485 34.9059 24.6066 33.6596 23.6957 32.45C23.575 32.2898 23.4422 32.136 23.2972 31.9898C22.6516 31.34 22.3099 30.3129 22.4383 29.4059C22.6286 28.0613 22.2116 26.6455 21.1869 25.6136C20.1418 24.5606 18.7332 24.1564 17.4115 24.3445C16.5135 24.4723 15.4965 24.1314 14.8572 23.488C13.1177 21.7355 10.2979 21.7355 8.55798 23.488C8.44839 23.5985 8.26211 23.5587 8.21951 23.409C8.12679 23.0833 8.07847 22.7425 8.07847 22.3943C8.07847 20.6342 7.39755 18.9794 6.15853 17.7308C4.71869 16.2883 4.71548 13.9533 6.15137 12.5067L10.9482 7.67437C12.714 5.89538 15.59 5.89203 17.36 7.6669C18.2632 8.57679 18.9017 10.2557 18.081 11.2405L13.4446 16.8039C12.927 17.4257 13.0109 18.3492 13.6323 18.8669C15.1349 20.1192 17.0354 20.7117 18.9836 20.5347C20.9314 20.3577 22.6941 19.4326 23.948 17.9277C24.4725 17.2983 25.3549 17.1087 26.0946 17.4657C28.8948 18.8188 32.1793 19.5469 34.3702 21.7541L40.8468 28.2785C41.4453 28.8816 41.4453 29.8628 40.8468 30.4659ZM43.213 18.3347C42.3612 19.1926 41.8924 20.3325 41.8924 21.544C41.8924 23.0528 40.0839 23.3514 39.021 22.2807L37.535 20.7838C35.7641 18.9999 36.2825 15.918 37.4505 13.6922C37.8263 12.9758 37.5501 12.0904 36.8337 11.7147C36.1173 11.3385 35.2319 11.6147 34.8562 12.3311C34.0612 13.8463 32.6967 14.8576 31.1681 15.2322C31.101 15.2425 31.0342 15.257 30.969 15.2768C29.7944 15.5198 28.5352 15.3913 27.369 14.8279C25.4163 13.8845 23.0844 14.388 21.6958 16.0543C20.9443 16.9557 19.8869 17.5107 18.7184 17.6172C17.766 17.7036 17.4342 16.5928 18.0464 15.8581L22.5088 10.5026C23.2037 9.66867 24.1259 8.96771 25.2114 8.96771H29.4614C30.6516 8.96771 31.7701 8.51376 32.6112 7.6669C34.423 5.84099 37.3755 5.8407 39.1876 7.66626L43.2124 11.7207C45.0292 13.5509 45.0295 16.5041 43.213 18.3347Z" fill="url(#paint0_linear_1002_4146)"/>
<defs>
<linearGradient id="paint0_linear_1002_4146" x1="-35" y1="-71" x2="65.9389" y2="-63.4303" gradientUnits="userSpaceOnUse">
<stop stop-color="#452B8C"/>
<stop offset="0.255208" stop-color="#00AFE9"/>
<stop offset="1" stop-color="#FF0090"/>
</linearGradient>
</defs>
</svg>
