<svg width="101" height="36" viewBox="0 0 101 36" fill="none" xmlns="http://www.w3.org/2000/svg">
<path d="M23.7057 0.898634L23.6862 0.893319L23.6348 0.879147C23.5994 0.869403 23.564 0.859659 23.5285 0.851686H23.4993C23.455 0.842827 23.4107 0.835737 23.3664 0.831307H23.3584C23.3066 0.826001 23.2546 0.823343 23.2025 0.823338H23.1946C23.1441 0.823338 23.0944 0.823339 23.0448 0.830426H23.0147C22.974 0.834855 22.9323 0.841053 22.8925 0.849026C22.8756 0.849026 22.8588 0.856113 22.842 0.860542C22.8092 0.867629 22.7764 0.875605 22.7436 0.885349L22.6834 0.905722C22.6551 0.915467 22.6267 0.925209 22.5948 0.936725C22.5629 0.948241 22.5532 0.954442 22.5328 0.964186C22.5124 0.973931 22.4797 0.988109 22.454 1.00228L22.399 1.03329C22.3713 1.04805 22.3447 1.06399 22.3193 1.08112L22.2741 1.11302C22.2458 1.1325 22.2183 1.15288 22.1918 1.17414L22.1572 1.20337C22.1289 1.22729 22.1023 1.25209 22.0757 1.27778L22.0483 1.30613C22.0217 1.33389 21.996 1.36342 21.9712 1.39472C21.9623 1.40535 21.9535 1.41598 21.9455 1.4275C21.9225 1.45584 21.9003 1.48537 21.879 1.51608L21.8498 1.56126C21.833 1.58872 21.8153 1.61618 21.7993 1.64453C21.7834 1.67288 21.7763 1.68882 21.7657 1.71097C21.755 1.73312 21.7417 1.75792 21.732 1.78184C21.7223 1.80576 21.7072 1.84208 21.6957 1.87043C21.6904 1.88548 21.6842 1.89966 21.6788 1.91472C21.6735 1.92978 21.6788 1.92269 21.6788 1.92623C21.6682 1.95901 21.6602 1.99179 21.6523 2.02456C21.6443 2.05734 21.6408 2.06443 21.6363 2.08391C21.6319 2.1034 21.6275 2.13618 21.623 2.16276C21.6186 2.18933 21.6133 2.21857 21.6106 2.24603C21.608 2.27349 21.6106 2.28412 21.6106 2.30361C21.6106 2.33905 21.6062 2.37359 21.6053 2.40902V19.329L13.9798 11.7035C13.7562 11.4796 13.4712 11.3271 13.1609 11.2653C12.8505 11.2035 12.5288 11.2352 12.2365 11.3563C11.9442 11.4774 11.6944 11.6826 11.5187 11.9457C11.343 12.2089 11.2494 12.5183 11.2496 12.8347V31.2021C8.34633 29.7093 6.01674 27.3002 4.62211 24.3484C3.22747 21.3967 2.84571 18.0673 3.53603 14.8765C4.22636 11.6857 5.95019 8.81182 8.4402 6.70053C10.9302 4.58924 14.0473 3.35852 17.308 3.19922C17.521 3.19382 17.7309 3.14592 17.9251 3.05833C18.1194 2.97073 18.2942 2.84521 18.4393 2.68913C18.5844 2.53304 18.6968 2.34955 18.77 2.14941C18.8432 1.94927 18.8757 1.73652 18.8656 1.52366C18.8554 1.3108 18.8028 1.10211 18.7109 0.909842C18.619 0.717577 18.4896 0.54561 18.3303 0.404041C18.1711 0.262472 17.9851 0.154153 17.7834 0.0854418C17.5816 0.0167307 17.3682 -0.010986 17.1556 0.00391719C12.9531 0.207747 8.95429 1.87496 5.85164 4.71681C2.74899 7.55865 0.737975 11.3961 0.166887 15.5646C-0.404202 19.7331 0.500608 23.9701 2.72461 27.5417C4.9486 31.1133 8.35171 33.7946 12.3445 35.1212L12.3676 35.1283L12.3888 35.1345C12.4313 35.1469 12.4774 35.1575 12.5155 35.1664L12.5385 35.1717C12.5873 35.1814 12.636 35.1885 12.6856 35.1938C12.7405 35.1991 12.7946 35.2036 12.8495 35.2036C12.9545 35.2029 13.0593 35.192 13.1622 35.1708H13.1781C13.2277 35.1602 13.2765 35.1478 13.3243 35.1327C13.3721 35.1176 13.42 35.0999 13.4669 35.0804L13.4829 35.0733C13.5218 35.0565 13.5599 35.0379 13.598 35.0175L13.6255 35.0025C13.6609 34.983 13.6964 34.9617 13.73 34.9387L13.7486 34.9272C13.8721 34.8432 13.9831 34.742 14.0782 34.6269L14.0879 34.6154C14.1154 34.5817 14.1419 34.5463 14.1667 34.5099L14.18 34.4913C14.2031 34.4559 14.2252 34.4196 14.2456 34.3824C14.2456 34.3753 14.2536 34.3691 14.2571 34.3629C14.2801 34.3195 14.3014 34.2743 14.3209 34.2309C14.3209 34.2203 14.328 34.2096 14.3324 34.199C14.3439 34.1698 14.3563 34.1405 14.3661 34.1104C14.3661 34.1104 14.3661 34.1033 14.3661 34.0989C14.3767 34.067 14.3847 34.0342 14.3926 34.0015C14.4006 33.9687 14.4042 33.9616 14.4086 33.9421C14.413 33.9226 14.4174 33.889 14.4219 33.8633C14.4263 33.8376 14.4316 33.8074 14.4343 33.78C14.4369 33.7525 14.4343 33.741 14.4387 33.7224C14.4387 33.687 14.4387 33.6524 14.444 33.617V16.6971L22.0695 24.3217C22.2923 24.5477 22.5775 24.7022 22.8885 24.7652C23.1996 24.8282 23.5224 24.797 23.8156 24.6755C24.1088 24.554 24.3591 24.3478 24.5344 24.0832C24.7097 23.8187 24.8021 23.5078 24.7997 23.1904V4.81856C27.2264 6.06271 29.2623 7.95299 30.6828 10.2809C32.1032 12.6087 32.853 15.2838 32.8495 18.0108C32.8495 25.8002 26.7681 32.2988 19.0053 32.8047C18.5889 32.8285 18.1982 33.0142 17.9167 33.322C17.6353 33.6298 17.4852 34.0355 17.4986 34.4524C17.512 34.8693 17.6878 35.2645 17.9885 35.5536C18.2892 35.8427 18.691 36.0029 19.1081 36H19.2135C28.6541 35.3799 36.0448 27.4815 36.0448 18.0117C36.0501 14.2237 34.8604 10.5306 32.645 7.45808C30.4296 4.38554 27.3014 2.09014 23.7057 0.898634Z" fill="url(#paint0_linear_285_3310)"/>
<path d="M57.3169 10.6172V25.3987C57.3172 25.763 57.1943 26.1168 56.9682 26.4025C56.7421 26.6883 56.4261 26.8892 56.0714 26.9727C55.7168 27.0562 55.3443 27.0174 55.0145 26.8626C54.6846 26.7078 54.4168 26.446 54.2545 26.1198L44.1247 14.6559V25.3934C44.1247 25.8219 43.9544 26.2329 43.6514 26.5359C43.3484 26.8389 42.9374 27.0092 42.5089 27.0092C42.0803 27.0092 41.6693 26.8389 41.3663 26.5359C41.0633 26.2329 40.8931 25.8219 40.8931 25.3934V10.6119C40.893 10.3072 40.9791 10.0086 41.1414 9.75068C41.3037 9.49277 41.5357 9.28603 41.8105 9.15432C42.0853 9.0226 42.3918 8.97129 42.6945 9.00631C42.9973 9.04132 43.2839 9.16124 43.5214 9.35221L43.5303 9.34246L43.5932 9.41333C43.6811 9.4934 43.7604 9.58247 43.8297 9.67909L54.0862 21.2564V10.6172C54.0862 10.1887 54.2564 9.77769 54.5594 9.47467C54.8625 9.17164 55.2734 9.00141 55.702 9.00141C56.1305 9.00141 56.5415 9.17164 56.8445 9.47467C57.1476 9.77769 57.3178 10.1887 57.3178 10.6172H57.3169Z" fill="white"/>
<path d="M61.0244 25.394V10.6125C61.0193 10.3971 61.0574 10.1828 61.1364 9.98234C61.2153 9.78183 61.3336 9.59914 61.4841 9.44499C61.6347 9.29084 61.8146 9.16835 62.0132 9.08472C62.2118 9.00109 62.4251 8.95801 62.6406 8.95801C62.8561 8.95801 63.0694 9.00109 63.268 9.08472C63.4666 9.16835 63.6465 9.29084 63.7971 9.44499C63.9477 9.59914 64.0659 9.78183 64.1449 9.98234C64.2238 10.1828 64.2619 10.3971 64.2569 10.6125V25.394C64.2619 25.6094 64.2238 25.8237 64.1449 26.0242C64.0659 26.2247 63.9477 26.4074 63.7971 26.5616C63.6465 26.7157 63.4666 26.8382 63.268 26.9218C63.0694 27.0055 62.8561 27.0485 62.6406 27.0485C62.4251 27.0485 62.2118 27.0055 62.0132 26.9218C61.8146 26.8382 61.6347 26.7157 61.4841 26.5616C61.3336 26.4074 61.2153 26.2247 61.1364 26.0242C61.0574 25.8237 61.0193 25.6094 61.0244 25.394Z" fill="white"/>
<path d="M67.4346 18.0028C67.4371 15.5444 68.4149 13.1875 70.1532 11.4492C71.8915 9.71082 74.2485 8.73309 76.7069 8.73051C77.9394 8.72668 79.16 8.97169 80.2955 9.45087C81.4311 9.93006 82.4582 10.6336 83.3154 11.5192C83.534 11.7426 83.6818 12.0255 83.7404 12.3326C83.7989 12.6396 83.7656 12.9571 83.6445 13.2452C83.5234 13.5334 83.3201 13.7794 83.0598 13.9526C82.7996 14.1257 82.494 14.2182 82.1815 14.2184C81.9659 14.2185 81.7525 14.1746 81.5545 14.0893C81.3564 14.004 81.1779 13.8791 81.0299 13.7223C79.8977 12.5255 78.3802 11.8301 76.7069 11.8301C73.3689 11.8301 70.6671 14.5852 70.6671 18.0028C70.6671 21.4205 73.3689 24.1755 76.7069 24.1755C78.3802 24.1755 79.896 23.4801 81.0299 22.2833C81.1735 22.1292 81.3465 22.0053 81.5385 21.9187C81.7306 21.8322 81.938 21.7847 82.1486 21.7791C82.3592 21.7735 82.5688 21.8099 82.7652 21.8861C82.9616 21.9623 83.1408 22.0769 83.2925 22.2231C83.4442 22.3693 83.5652 22.5443 83.6486 22.7377C83.732 22.9312 83.776 23.1393 83.7781 23.35C83.7803 23.5606 83.7405 23.7696 83.661 23.9647C83.5816 24.1598 83.4641 24.3372 83.3154 24.4864C82.4582 25.3721 81.4311 26.0756 80.2955 26.5547C79.16 27.0339 77.9394 27.2789 76.7069 27.2751C74.2485 27.2725 71.8915 26.2948 70.1532 24.5565C68.4149 22.8181 67.4371 20.4612 67.4346 18.0028Z" fill="white"/>
<path d="M100.202 25.4602C100.202 25.8712 100.039 26.2654 99.7487 26.5561C99.4581 26.8468 99.064 27.0102 98.653 27.0105H88.5728C88.1442 27.0102 87.7332 26.8398 87.4302 26.5366C87.1272 26.2335 86.957 25.8224 86.957 25.3938V10.6123C86.957 10.1837 87.1272 9.7726 87.4302 9.46944C87.7332 9.16627 88.1442 8.99584 88.5728 8.99561H98.653C99.0642 8.99561 99.4585 9.15893 99.7492 9.44966C100.04 9.74039 100.203 10.1347 100.203 10.5459C100.203 10.957 100.04 11.3513 99.7492 11.6421C99.4585 11.9328 99.0642 12.0961 98.653 12.0961H90.1895V16.9843H97.0638C97.475 16.9843 97.8693 17.1476 98.16 17.4383C98.4507 17.7291 98.6141 18.1234 98.6141 18.5345C98.6141 18.9457 98.4507 19.34 98.16 19.6307C97.8693 19.9215 97.475 20.0848 97.0638 20.0848H90.1895V23.9126H98.653C99.0636 23.9126 99.4575 24.0756 99.748 24.3658C100.038 24.656 100.202 25.0496 100.202 25.4602Z" fill="white"/>
<defs>
<linearGradient id="paint0_linear_285_3310" x1="9.00396" y1="2.38954" x2="27.0348" y2="33.6197" gradientUnits="userSpaceOnUse">
<stop stop-color="#EE518D"/>
<stop offset="0.31" stop-color="#E9508D"/>
<stop offset="1" stop-color="#823C97"/>
</linearGradient>
</defs>
</svg>
