<svg width="48" height="48" viewBox="0 0 48 48" fill="none" xmlns="http://www.w3.org/2000/svg">
<path opacity="0.5" d="M47.9997 12.6189V7.84005C47.9997 5.72798 46.2718 4 44.1597 4H3.84005C1.72798 4 0 5.72798 0 7.84005V12.6189H47.9997Z" fill="#EFEE93"/>
<path opacity="0.5" d="M45.1474 19.1323L48.0011 20.059V17.4189H44.3516L45.1474 19.1323Z" fill="#EFEE93"/>
<path opacity="0.5" d="M18.4659 33.1343L16.0053 28.9508L19.3957 25.479L19.161 20.6311L23.7765 19.1315L24.5724 17.4189H0V31.3174C0 33.4295 1.72798 35.1574 3.84005 35.1574H17.8619L18.4659 33.1343Z" fill="#EFEE93"/>
<path d="M47.9991 29.5338L45.4896 26.9641L45.6634 23.3766L42.2482 22.2667L40.7352 19.0095L37.1952 19.6142L34.3415 17.4336L31.4878 19.6142L27.9478 19.0095L26.4348 22.2667L23.0187 23.3762L23.1924 26.9638L20.6836 29.5335L22.5047 32.6285L21.4775 36.0704L24.5284 37.9648L25.2181 41.4895L28.8003 41.7496L31.0496 44.5501L34.3419 43.1154L37.6341 44.5501L39.8834 41.7496L43.4653 41.4895L44.1557 37.9648L47.2066 36.0704L46.1794 32.6285L47.9991 29.5338ZM27.8675 24.5537C28.8051 23.6161 30.3241 23.6161 31.2616 24.5537C32.1992 25.4912 32.1992 27.0102 31.2616 27.9478C30.3241 28.8853 28.8051 28.8853 27.8675 27.9478C26.9303 27.0106 26.9303 25.4909 27.8675 24.5537ZM30.0448 37.9687L27.3294 35.2533L38.5673 24.0154L41.2827 26.7308L30.0448 37.9687ZM40.7444 37.4306C39.8069 38.3682 38.2879 38.3682 37.3504 37.4306C36.4128 36.4931 36.4128 34.9741 37.3504 34.0366C38.2879 33.099 39.8069 33.099 40.7444 34.0366C41.6816 34.9734 41.6816 36.4931 40.7444 37.4306Z" fill="#EFEE93"/>
</svg>
