<svg width="38" height="24" viewBox="0 0 38 24" fill="none" xmlns="http://www.w3.org/2000/svg">
<path fill-rule="evenodd" clip-rule="evenodd" d="M19.4396 20.8841C17.4823 22.5731 14.9434 23.5927 12.1691 23.5927C5.97848 23.5927 0.959961 18.5159 0.959961 12.2534C0.959961 5.99084 5.97848 0.914062 12.1691 0.914062C14.9434 0.914062 17.4823 1.93364 19.4396 3.62259C21.3969 1.93364 23.9358 0.914062 26.7101 0.914062C32.9008 0.914062 37.9193 5.99084 37.9193 12.2534C37.9193 18.5159 32.9008 23.5927 26.7101 23.5927C23.9358 23.5927 21.3969 22.5731 19.4396 20.8841Z" fill="#84808F"/>
<path fill-rule="evenodd" clip-rule="evenodd" d="M19.4386 20.8833C21.8483 18.8034 23.3763 15.7089 23.3763 12.2534C23.3763 8.79781 21.8483 5.70327 19.4386 3.62344C21.396 1.93398 23.9353 0.914062 26.7101 0.914062C32.9007 0.914062 37.9193 5.99084 37.9193 12.2534C37.9193 18.5159 32.9007 23.5927 26.7101 23.5927C23.9353 23.5927 21.396 22.5727 19.4386 20.8833Z" fill="#676373"/>
<path fill-rule="evenodd" clip-rule="evenodd" d="M19.4367 20.8829C21.8464 18.8031 23.3744 15.7085 23.3744 12.253C23.3744 8.79741 21.8464 5.70288 19.4367 3.62305C17.0269 5.70288 15.499 8.79741 15.499 12.253C15.499 15.7085 17.0269 18.8031 19.4367 20.8829Z" fill="#676373"/>
</svg>
