<svg width="40" height="49" viewBox="0 0 40 49" fill="none" xmlns="http://www.w3.org/2000/svg">
<path fill-rule="evenodd" clip-rule="evenodd" d="M31.9499 11H8.44968H7.26169C5.33553 11 3.48859 11.7653 2.12696 13.1269C0.76533 14.489 5.43428e-05 16.3359 5.43428e-05 18.2616V35.4907C-0.00639227 37.1576 0.560905 38.7761 1.60664 40.0747C2.65236 41.3727 4.113 42.2716 5.74304 42.6201V46.251C5.74304 46.7759 5.95209 47.2797 6.32323 47.6513C6.69483 48.0224 7.19859 48.2315 7.72353 48.2315H31.4881C32.013 48.2315 32.5168 48.0224 32.8884 47.6513C33.2595 47.2797 33.4686 46.7759 33.4686 46.251V42.6201C35.0986 42.2716 36.5593 41.3727 37.605 40.0747C38.6507 38.7761 39.2181 37.1576 39.2116 35.4907V18.2616C39.2116 16.3359 38.4463 14.489 37.0847 13.1269C35.723 11.7653 33.8761 11 31.9499 11ZM23.1534 19.4992L23.1426 19.4963L23.1141 19.4884C23.0945 19.483 23.0748 19.4776 23.0551 19.4732H23.0389C23.0143 19.4682 22.9898 19.4643 22.9652 19.4618H22.9608C22.932 19.4589 22.9031 19.4574 22.8742 19.4574H22.8698C22.8418 19.4574 22.8143 19.4574 22.7868 19.4613H22.77C22.7474 19.4638 22.7243 19.4673 22.7022 19.4717C22.6954 19.4717 22.6886 19.4738 22.6818 19.4758L22.6742 19.4781C22.656 19.482 22.6378 19.4864 22.6196 19.4919L22.5862 19.5032L22.5859 19.5033C22.5703 19.5087 22.5546 19.514 22.5371 19.5204C22.5235 19.5253 22.5172 19.5285 22.5099 19.5321L22.5026 19.5357L22.4917 19.5408C22.4814 19.5455 22.4691 19.5512 22.4589 19.5568L22.4284 19.574C22.413 19.5823 22.3983 19.5911 22.3842 19.6006L22.3591 19.6183C22.3434 19.6292 22.3282 19.6405 22.3134 19.6523L22.2942 19.6685C22.2785 19.6818 22.2638 19.6956 22.249 19.7099L22.2338 19.7256C22.219 19.741 22.2048 19.7575 22.191 19.7748C22.1861 19.7808 22.1812 19.7867 22.1768 19.7931C22.164 19.8088 22.1517 19.8252 22.1399 19.8423L22.1237 19.8674L22.1109 19.888C22.1057 19.8964 22.1005 19.9049 22.0957 19.9136C22.0883 19.9268 22.0843 19.9351 22.0798 19.9446L22.077 19.9505C22.0752 19.9542 22.0733 19.9581 22.0714 19.962C22.0668 19.9711 22.0621 19.9806 22.0583 19.9899L22.0497 20.0108L22.0382 20.0391C22.0367 20.0433 22.0351 20.0474 22.0335 20.0514C22.0319 20.0555 22.0303 20.0595 22.0288 20.0637C22.0268 20.0694 22.0275 20.0694 22.0282 20.0695C22.0285 20.0695 22.0288 20.0695 22.0288 20.0701C22.0229 20.0883 22.0185 20.1065 22.0141 20.1247L22.0141 20.1248C22.0117 20.1344 22.0101 20.1401 22.0087 20.1448C22.0074 20.1491 22.0064 20.1526 22.0052 20.1577C22.0035 20.1651 22.0019 20.1759 22.0002 20.1867L21.9978 20.2015C21.9975 20.2038 21.9971 20.2061 21.9967 20.2085C21.9945 20.2213 21.9922 20.2349 21.991 20.2478C21.99 20.2579 21.9903 20.2639 21.9906 20.27C21.9908 20.2731 21.991 20.2762 21.991 20.2798C21.991 20.2907 21.9902 20.3015 21.9895 20.3122C21.9888 20.3209 21.9882 20.3296 21.988 20.3383V29.7383L17.7569 25.5019C17.6328 25.3776 17.4747 25.2928 17.3025 25.2585C17.1303 25.2242 16.9518 25.2418 16.7896 25.3091C16.6274 25.3764 16.4888 25.4903 16.3913 25.6365C16.2938 25.7827 16.2419 25.9546 16.242 26.1304V36.3345C14.6311 35.5051 13.3385 34.1668 12.5646 32.5269C11.7908 30.8871 11.579 29.0374 11.962 27.2647C12.3451 25.4921 13.3015 23.8955 14.6832 22.7225C16.0648 21.5496 17.7943 20.8658 19.6036 20.7773C19.7218 20.7743 19.8382 20.7477 19.946 20.6991C20.0538 20.6504 20.1508 20.5807 20.2313 20.494C20.3118 20.4072 20.3742 20.3053 20.4148 20.1941C20.4554 20.0829 20.4735 19.9647 20.4678 19.8465C20.4622 19.7282 20.433 19.6123 20.382 19.5055C20.331 19.3987 20.2592 19.3031 20.1709 19.2245C20.0825 19.1458 19.9793 19.0856 19.8674 19.0475C19.7554 19.0093 19.637 18.9939 19.5191 19.0022C17.1872 19.1154 14.9684 20.0416 13.2469 21.6204C11.5253 23.1993 10.4095 25.3312 10.0926 27.647C9.77572 29.9629 10.2778 32.3167 11.5118 34.3009C12.7458 36.2852 14.6341 37.7748 16.8495 38.5118L16.8623 38.5157L16.8741 38.5192C16.897 38.5258 16.9217 38.5316 16.9425 38.5364L16.9444 38.5369L16.9572 38.5398C16.9842 38.5452 17.0113 38.5492 17.0388 38.5521C17.0693 38.5551 17.0992 38.5575 17.1297 38.5575C17.188 38.5572 17.2461 38.5511 17.3032 38.5393H17.3121C17.3396 38.5334 17.3666 38.5265 17.3932 38.5182C17.4197 38.5098 17.4463 38.5 17.4723 38.4891L17.4812 38.4852C17.5028 38.4758 17.5239 38.4655 17.5451 38.4542L17.5603 38.4458C17.58 38.435 17.5996 38.4232 17.6183 38.4104L17.6286 38.404C17.6971 38.3573 17.7587 38.3011 17.8115 38.2372L17.8169 38.2308C17.8321 38.2121 17.8469 38.1924 17.8606 38.1722L17.868 38.1619C17.8808 38.1422 17.8931 38.122 17.9044 38.1013C17.9044 38.0974 17.9088 38.0939 17.9108 38.0905C17.9235 38.0664 17.9353 38.0413 17.9461 38.0172C17.9461 38.0129 17.9482 38.0086 17.9503 38.0043C17.9511 38.0027 17.9519 38.0011 17.9525 37.9994L17.9632 37.9725C17.9661 37.9651 17.9688 37.9577 17.9712 37.9502V37.9438C17.9771 37.9261 17.9815 37.9079 17.986 37.8897C17.9883 37.88 17.99 37.8744 17.9914 37.8696C17.9926 37.8654 17.9937 37.8618 17.9948 37.8567C17.9964 37.8498 17.9979 37.8397 17.9995 37.8296L17.9995 37.8295L18.0022 37.8129L18.0051 37.7955C18.0067 37.7859 18.0082 37.776 18.0091 37.7667C18.0097 37.7603 18.0098 37.7554 18.0099 37.7512L18.0099 37.7503C18.01 37.7449 18.0102 37.7404 18.0115 37.7347C18.0115 37.715 18.0115 37.6958 18.0145 37.6761V28.2761L22.2456 32.512C22.3692 32.6376 22.5274 32.7234 22.7 32.7584C22.8726 32.7935 23.0517 32.7761 23.2144 32.7086C23.3771 32.6411 23.516 32.5266 23.6133 32.3796C23.7105 32.2326 23.7618 32.0599 23.7605 31.8836V21.677C25.107 22.3682 26.2366 23.4183 27.0248 24.7116C27.8129 26.0049 28.229 27.491 28.227 29.006C28.227 33.3334 24.8527 36.9438 20.5454 37.2248C20.3143 37.2381 20.0975 37.3412 19.9414 37.5122C19.7852 37.6832 19.7019 37.9086 19.7094 38.1402C19.7168 38.3719 19.8143 38.5914 19.9812 38.752C20.148 38.9126 20.3709 39.0016 20.6024 39H20.6609C25.8991 38.6555 30 34.2675 30 29.0065C30.0029 26.9021 29.3428 24.8503 28.1135 23.1434C26.8843 21.4364 25.1486 20.1612 23.1534 19.4992Z" fill="#EFEE93"/>
<path opacity="0.5" fill-rule="evenodd" clip-rule="evenodd" d="M30.0011 9.21464H30.7629V1.98165C30.7813 1.45119 30.5787 0.93639 30.2035 0.561084C29.8277 0.185342 29.3134 -0.0172582 28.7824 0.00115466H10.4309C9.89996 -0.0172641 9.38562 0.185342 9.00984 0.561084C8.63456 0.936366 8.43196 1.45117 8.45037 1.98165V9.21464H30.0011ZM12.4107 2.96191H26.8015V6.28205H12.4107V2.96191Z" fill="#EFEE93"/>
</svg>
