<svg width="16" height="16" viewBox="0 0 16 16" fill="none" xmlns="http://www.w3.org/2000/svg">
<path d="M6.52472 6.51295C6.97272 6.7275 7.47153 6.84803 8.00039 6.84803C8.52926 6.84803 9.03005 6.7275 9.47606 6.51295C9.7904 6.36235 10.0803 6.16476 10.3325 5.92762C11.0045 5.30262 11.4243 4.41044 11.4243 3.42414C11.4243 1.53604 9.88832 0 8.00046 0C6.1126 0 4.57666 1.53594 4.57666 3.4238C4.57666 4.41195 4.99642 5.30232 5.6684 5.92728C5.92063 6.16257 6.21041 6.36018 6.52486 6.51275L6.52472 6.51295Z" fill="#001E1B"/>
<path d="M14.8595 12.9394C14.3758 10.1047 12.6703 7.84407 10.4717 6.86157C9.75634 7.37914 8.89986 7.65779 8.00021 7.65779C7.1004 7.65779 6.24408 7.37917 5.52876 6.86157C3.33028 7.84606 1.62497 10.1048 1.14094 12.9394C1.00728 13.7244 1.37807 14.5112 2.00305 14.7691C3.99262 15.5897 5.99726 16.0001 7.99991 16.0001C10.0026 16.0001 12.0072 15.5897 13.9968 14.769C14.6218 14.5111 14.9925 13.7244 14.8589 12.9394H14.8595Z" fill="#001E1B"/>
</svg>
