<svg width="48" height="48" viewBox="0 0 48 48" fill="none" xmlns="http://www.w3.org/2000/svg">
<path d="M24.0001 12.1562C17.8228 12.1562 12.7812 17.4455 12.7812 23.926C12.7812 30.4066 17.8229 35.6958 24.0001 35.6958C30.1773 35.6958 35.219 30.4066 35.219 23.926C35.219 17.4455 30.1773 12.1562 24.0001 12.1562V12.1562ZM30.1066 22.1381L24.0709 28.4702C23.7157 28.8427 23.2898 28.9919 22.793 28.9919C22.3671 28.9919 21.8698 28.8427 21.5152 28.4702L17.8228 24.5964C17.1125 23.8513 17.1125 22.7341 17.8228 21.989C18.533 21.2438 19.5979 21.2438 20.3082 21.989L22.7937 24.5964L27.551 19.6055C28.2613 18.8603 29.3262 18.8603 30.0365 19.6055C30.817 20.2758 30.817 21.3934 30.1068 22.1381H30.1066Z" fill="#FC6092"/>
<path opacity="0.5" d="M42.5325 30.3321C43.2427 28.0972 48 26.4584 48 24C48 21.5418 43.2426 19.9028 42.5325 17.6679C41.8222 15.3588 44.7335 11.1125 43.3844 9.17579C42.0352 7.23912 37.2779 8.80322 35.4319 7.4626C33.5859 6.04712 33.5859 0.832798 31.3843 0.0877436C29.254 -0.657391 26.3427 3.58888 24 3.58888C21.6568 3.58888 18.6746 -0.657444 16.6157 0.0877436C14.4146 0.832878 14.4146 6.12148 12.5681 7.4626C10.7221 8.87809 5.96487 7.23916 4.61563 9.17579C3.2664 11.1124 6.17775 15.3586 5.46755 17.6679C4.75729 19.9028 0 21.5416 0 24C0 26.4582 4.75737 28.0972 5.46755 30.3321C6.17781 32.6412 3.26651 36.8875 4.61563 38.8242C5.96487 40.7609 10.7221 39.1968 12.5681 40.5374C14.4141 41.9529 14.4141 47.1672 16.6157 47.9123C18.746 48.6574 21.6573 44.4111 24 44.4111C26.3432 44.4111 29.3254 48.6574 31.3843 47.9123C33.5854 47.1671 33.5854 41.8785 35.4319 40.5374C37.2779 39.1219 42.0351 40.7608 43.3844 38.8242C44.7336 36.8875 41.8222 32.567 42.5325 30.3321V30.3321ZM24 39.4201C15.8346 39.4201 9.23089 32.4926 9.23089 23.9258C9.23089 15.4337 15.8346 8.50589 24 8.50589C32.1654 8.50589 38.7692 15.4334 38.7692 24.0003C38.7692 32.4924 32.1654 39.4201 24 39.4201Z" fill="#FC6092"/>
</svg>
