<svg width="44" height="15" viewBox="0 0 44 15" fill="none" xmlns="http://www.w3.org/2000/svg">
<path fill-rule="evenodd" clip-rule="evenodd" d="M11.5431 14.3469H7.81138L5.01301 3.67095C4.88019 3.17985 4.59817 2.7457 4.18333 2.54108C3.14804 2.02685 2.00722 1.61761 0.762695 1.41121V1.00018H6.77427C7.60396 1.00018 8.22622 1.61761 8.32993 2.33467L9.78188 10.0356L13.5118 1.00018H17.1399L11.5431 14.3469ZM19.2148 14.346H15.6904L18.5925 0.999267H22.1168L19.2148 14.346ZM26.677 4.69666C26.7807 3.97781 27.403 3.56679 28.129 3.56679C29.2698 3.46359 30.5125 3.66999 31.5496 4.18244L32.1719 1.30883C31.1347 0.897808 29.9939 0.691406 28.9586 0.691406C25.538 0.691406 23.049 2.54012 23.049 5.10591C23.049 7.05782 24.812 8.08271 26.0566 8.70014C27.403 9.31578 27.9215 9.7268 27.8178 10.3425C27.8178 11.2659 26.7807 11.6769 25.7454 11.6769C24.5009 11.6769 23.2564 11.3691 22.1174 10.8549L21.4951 13.7303C22.7396 14.2427 24.0861 14.4491 25.3306 14.4491C29.1661 14.5505 31.5496 12.7036 31.5496 9.93143C31.5496 6.4404 26.677 6.23577 26.677 4.69666ZM43.8823 14.346L41.084 0.999267H38.0782C37.4559 0.999267 36.8336 1.41029 36.6262 2.02594L31.4443 14.346H35.0724L35.7965 12.3958H40.2543L40.6691 14.346H43.8823ZM38.5982 4.59344L39.6335 9.62359H36.7314L38.5982 4.59344Z" fill="#676373"/>
</svg>
